<svg version="1.1" id="Layer_1" xmlns="http://www.w3.org/2000/svg" xmlns:xlink="http://www.w3.org/1999/xlink" x="0px" y="0px"
	 width="100%" viewBox="0 0 1742 1605" enable-background="new 0 0 1742 1605" xml:space="preserve">
<path fill="#000000" opacity="1.000000" stroke="none" 
	d="
M1171.000000,1606.000000 
	C780.666809,1606.000000 390.833557,1606.000000 1.000262,1606.000000 
	C1.000174,1071.000244 1.000174,536.000549 1.000087,1.000620 
	C581.666199,1.000414 1162.332397,1.000414 1742.999023,1.000207 
	C1742.999268,535.999390 1742.999268,1070.998779 1742.999634,1605.999023 
	C1552.500000,1606.000000 1362.000000,1606.000000 1171.000000,1606.000000 
M327.149109,1117.429321 
	C327.402802,1117.443848 327.656525,1117.458374 327.910187,1117.472900 
	C327.761902,1117.231934 327.613647,1116.991089 327.465393,1116.750122 
	C327.283813,1116.905518 327.102234,1117.060791 327.347870,1116.586670 
	C325.591797,1115.105103 323.909149,1113.524658 322.068573,1112.156738 
	C296.213715,1092.942505 282.086823,1066.416016 278.495392,1035.266357 
	C274.572815,1001.244995 272.301147,967.035461 272.606995,932.599426 
	C273.384064,845.107483 272.864014,757.604126 272.874878,670.105286 
	C272.875092,668.401428 273.017731,666.697632 273.148987,663.762939 
	C274.626556,666.529236 275.488281,668.093323 276.305878,669.680176 
	C355.071777,822.561523 433.850403,975.436340 512.500183,1128.377441 
	C514.388855,1132.050049 516.463623,1133.200439 520.460266,1133.171997 
	C545.791992,1132.991333 571.125549,1133.080200 596.458557,1133.080200 
	C598.218384,1133.080200 599.978149,1133.080322 602.001831,1133.080322 
	C602.001831,1130.460693 602.001831,1128.483398 602.001831,1126.506104 
	C602.001831,967.341614 601.971863,808.177124 602.032166,649.012634 
	C602.041870,623.317627 603.932983,597.810974 609.820190,572.656677 
	C616.869568,542.536560 631.521484,517.721436 658.162231,500.962036 
	C670.269104,493.345734 682.626709,486.128235 694.749146,478.535950 
	C697.986389,476.508453 700.133179,476.935364 702.996826,479.365967 
	C725.227600,498.235077 747.657715,516.869507 769.866821,535.763794 
	C772.088806,537.654114 774.014526,540.577576 774.795471,543.378967 
	C820.860596,708.628052 866.792542,873.914307 912.729797,1039.199097 
	C916.187561,1051.640015 919.590393,1064.096191 922.984070,1076.419678 
	C899.775696,1095.213135 876.957764,1113.690308 853.347656,1132.809082 
	C932.059021,1132.809082 1009.577576,1132.809082 1088.214233,1132.809082 
	C1086.451294,1131.193115 1085.382812,1130.235107 1084.337646,1129.252563 
	C1072.438232,1118.065186 1060.521851,1106.895630 1048.653442,1095.675537 
	C1041.760254,1089.158936 1033.207520,1083.580322 1028.584717,1075.709961 
	C1023.967224,1067.848633 1023.187988,1057.686523 1021.018127,1048.464478 
	C1020.443237,1046.021118 1020.376953,1043.170044 1021.032288,1040.766724 
	C1055.009888,916.152588 1089.089722,791.566345 1123.174194,666.981384 
	C1123.608765,665.392883 1124.244751,663.859497 1125.257935,660.945557 
	C1130.639160,680.334534 1135.686646,698.080078 1140.395020,715.915100 
	C1141.188232,718.919983 1141.240479,722.510010 1140.419434,725.495300 
	C1109.081177,839.456055 1077.625732,953.384705 1046.034424,1067.275635 
	C1044.944092,1071.206299 1045.742432,1073.654297 1048.284546,1076.556885 
	C1071.450195,1103.007690 1094.481201,1129.576660 1117.542725,1156.118652 
	C1118.757324,1157.516479 1119.892212,1158.983398 1121.714111,1161.213745 
	C1039.723267,1161.213745 958.995178,1161.213745 877.495117,1161.213745 
	C879.939880,1164.583618 882.241943,1167.207397 883.907227,1170.187012 
	C886.145264,1174.191406 889.252563,1175.104248 893.669617,1175.097290 
	C977.168335,1174.967529 1060.667236,1175.001709 1144.166138,1175.001709 
	C1145.917236,1175.001709 1147.668335,1175.001709 1150.297485,1175.001709 
	C1148.793457,1173.119385 1147.918945,1171.980835 1146.999390,1170.880005 
	C1119.651733,1138.143677 1092.326904,1105.388062 1064.891724,1072.725098 
	C1062.877441,1070.327026 1062.174316,1068.295898 1063.029419,1065.188843 
	C1091.698242,961.009277 1120.280884,856.806030 1148.892212,752.610474 
	C1149.208008,751.460266 1149.731445,750.366943 1150.294678,748.887756 
	C1150.693604,749.571106 1150.813721,749.705078 1150.856567,749.860291 
	C1180.584839,857.537781 1210.290771,965.221497 1240.118530,1072.871338 
	C1240.961792,1075.914795 1239.973877,1077.308594 1237.875000,1079.059692 
	C1219.450317,1094.430908 1201.102173,1109.893677 1182.736328,1125.335327 
	C1180.009399,1127.628052 1177.308716,1129.952026 1173.935547,1132.823486 
	C1252.353394,1132.823486 1329.718872,1132.823486 1407.908691,1132.823486 
	C1406.075806,1131.095215 1404.826660,1129.863892 1403.521729,1128.695068 
	C1385.025879,1112.127930 1366.480347,1095.615601 1348.086182,1078.936523 
	C1346.256714,1077.277588 1344.767822,1074.774414 1344.096313,1072.388550 
	C1341.304443,1062.470215 1338.611450,1052.505249 1336.471191,1042.432129 
	C1335.653076,1038.581543 1335.553589,1034.161377 1336.580078,1030.396973 
	C1361.595093,938.661011 1386.827515,846.984253 1411.976196,755.284668 
	C1432.641113,679.933838 1453.889282,604.782593 1478.842285,530.681946 
	C1504.869263,453.391937 1542.903076,383.134277 1596.283447,321.336456 
	C1603.015259,313.542969 1609.761108,305.761597 1616.740356,297.697418 
	C1613.901367,295.223938 1611.300781,292.958130 1608.945679,290.906189 
	C1537.198242,339.634918 1458.665161,373.385986 1377.014160,401.750488 
	C1379.307129,403.299347 1381.223511,404.577545 1383.123535,405.879608 
	C1403.276489,419.690674 1418.124390,437.465088 1424.681152,461.450470 
	C1429.630615,479.556519 1428.976074,497.934296 1425.483154,515.971191 
	C1418.372925,552.686340 1411.647095,589.567810 1402.258423,625.730469 
	C1383.211670,699.093323 1362.503662,772.024963 1342.467285,845.130676 
	C1340.020874,854.057251 1337.492920,862.961487 1334.616211,873.259827 
	C1297.622681,739.303406 1261.037720,606.826843 1224.457153,474.366211 
	C1219.481079,474.366211 1214.810547,474.366211 1209.868774,474.366211 
	C1210.160767,475.573914 1210.329956,476.376068 1210.548828,477.164398 
	C1249.286377,616.674377 1288.037476,756.180481 1326.685303,895.715210 
	C1327.350342,898.116638 1327.306763,901.002808 1326.676758,903.424255 
	C1323.957153,913.878052 1320.914551,924.248291 1317.951904,934.638306 
	C1315.954224,941.644531 1313.893799,948.632812 1311.586182,956.576538 
	C1310.841309,954.369995 1310.416626,953.290100 1310.109497,952.177673 
	C1275.735352,827.673096 1241.371582,703.165588 1207.003418,578.659302 
	C1197.714844,545.009277 1188.436890,511.356201 1179.040527,477.736267 
	C1178.646606,476.327148 1177.113647,474.178650 1176.084717,474.163330 
	C1160.616943,473.933380 1145.144531,474.004089 1129.535767,474.004089 
	C1093.024658,606.823608 1056.612305,739.284058 1019.894714,872.855042 
	C1019.250122,871.126038 1019.051453,870.693604 1018.925354,870.240967 
	C989.620483,765.031982 960.334290,659.817871 930.949219,554.631348 
	C930.136353,551.721680 930.912170,550.118896 933.000610,548.286560 
	C944.523987,538.176208 955.945862,527.950134 967.391968,517.751892 
	C969.075439,516.251892 970.701782,514.687744 972.653259,512.875916 
	C968.324768,509.905884 964.530884,507.302673 960.627136,504.624084 
	C946.410339,517.260132 932.617310,529.827820 918.425842,541.928223 
	C914.623047,545.170715 914.116882,547.912354 915.407593,552.490417 
	C947.027649,664.645203 978.437866,776.859192 1010.119507,888.996521 
	C1012.191895,896.331726 1012.377502,902.931091 1010.061279,910.207825 
	C1004.898071,926.428650 1000.424988,942.869080 995.294067,960.515076 
	C994.332092,957.800049 993.714294,956.342102 993.293884,954.829285 
	C955.145935,817.570435 917.031311,680.302368 878.777588,543.073059 
	C877.803345,539.578125 878.567505,537.710815 881.071716,535.431396 
	C902.022949,516.361084 922.849915,497.154358 943.735596,478.011993 
	C944.907410,476.937927 946.264893,476.066467 948.540771,474.337341 
	C788.371521,474.337341 629.917114,474.337341 473.028625,474.337341 
	C486.869049,483.227295 502.061218,492.166687 516.350281,502.370697 
	C534.252197,515.154602 545.149231,532.679810 549.406616,554.611755 
	C554.961914,583.229919 556.416870,612.126038 556.492981,641.110840 
	C556.728699,730.941772 556.637756,820.773560 556.660400,910.604980 
	C556.660706,912.022278 556.493286,913.439636 556.404114,914.856934 
	C556.078003,914.945923 555.751892,915.034912 555.425781,915.123840 
	C490.925171,788.552063 426.424591,661.980347 361.767303,535.101074 
	C382.986877,520.726379 404.018250,506.479126 425.051636,492.230530 
	C421.640900,488.715424 418.547150,485.527008 415.277374,482.157227 
	C391.374115,498.365814 367.458954,514.582458 343.430542,530.875916 
	C344.677399,533.335632 345.638641,535.254700 346.619446,537.163635 
	C412.297180,664.991699 477.735809,792.943787 543.937805,920.499756 
	C552.964111,937.891357 558.716980,954.881470 556.838440,974.530762 
	C555.885010,984.503784 556.671692,994.643066 556.671692,1004.707214 
	C556.319031,1004.793274 555.966309,1004.879333 555.613647,1004.965454 
	C473.236969,844.337952 390.860291,683.710449 308.331360,522.786133 
	C332.486237,506.634460 356.292542,490.715881 380.842285,474.300171 
	C293.890717,474.300171 208.038193,474.300171 121.382080,474.300171 
	C123.997162,476.511261 125.987274,478.214264 127.998833,479.891571 
	C147.067078,495.791260 166.097382,511.737030 185.255829,527.527344 
	C188.047379,529.828125 189.322998,532.090637 189.319824,535.872192 
	C189.205185,672.203613 189.224426,808.535095 189.222748,944.866577 
	C189.222397,974.229553 187.682571,1003.460571 182.088928,1032.375732 
	C176.895645,1059.221313 166.995880,1083.568726 144.647598,1100.869263 
	C136.129517,1107.463379 127.027855,1113.466309 117.611328,1118.692017 
	C107.976021,1124.038940 97.629105,1128.103760 86.833115,1133.080322 
	C89.323082,1133.080322 91.088142,1133.080200 92.853203,1133.080200 
	C163.352249,1133.080200 233.851288,1133.073608 304.350342,1133.090942 
	C311.168488,1133.092651 318.786957,1131.372437 324.579681,1133.850586 
	C330.378174,1136.331177 334.376953,1143.052002 339.118896,1147.958496 
	C343.067200,1152.044067 346.949158,1156.193604 351.709045,1161.208862 
	C265.274689,1161.208862 180.231049,1161.208862 94.503754,1161.208862 
	C96.647705,1164.933472 98.612633,1167.983154 100.202049,1171.217285 
	C101.610718,1174.083496 103.440941,1175.096313 106.774727,1175.092041 
	C196.606689,1174.978638 286.438843,1175.003052 376.270935,1174.989624 
	C377.610870,1174.989380 378.950806,1174.806396 380.941620,1174.661255 
	C366.207764,1158.941772 352.113922,1143.833374 337.887909,1128.850464 
	C336.614380,1127.509155 334.536926,1126.856812 332.743286,1126.095581 
	C319.607086,1120.519165 305.961639,1115.914062 293.403564,1109.254761 
	C271.372437,1097.572266 254.809525,1080.451538 246.956100,1056.085571 
	C240.742065,1036.805908 237.486481,1016.878296 236.141037,996.800049 
	C233.958710,964.232971 231.735382,931.599121 231.538895,898.981323 
	C230.913406,795.153809 231.214523,691.320679 231.168747,587.489746 
	C231.168503,586.945312 231.326920,586.400757 231.562820,584.877441 
	C232.786667,587.085693 233.531723,588.350037 234.202484,589.652588 
	C241.590103,603.998779 249.073700,618.297546 256.253387,632.747192 
	C257.666931,635.591980 258.552917,639.021667 258.569916,642.187561 
	C258.737976,673.519531 258.695190,704.852844 258.666779,736.185730 
	C258.607361,801.683472 258.675781,867.182007 258.377563,932.678711 
	C258.234192,964.171082 257.186554,995.675781 263.113373,1026.838867 
	C267.348572,1049.107422 274.092102,1070.430542 288.110901,1088.717041 
	C298.245972,1101.937378 310.761230,1112.083740 327.149109,1117.429321 
M1537.358887,475.775909 
	C1533.878784,483.329712 1530.279297,490.831085 1526.937500,498.445618 
	C1501.293213,556.879150 1481.371704,617.361145 1464.215820,678.699585 
	C1428.710205,805.644104 1394.048096,932.824463 1358.904297,1059.870483 
	C1357.825439,1063.771118 1358.554321,1066.249878 1361.102051,1069.170044 
	C1386.080078,1097.798584 1410.926147,1126.542236 1435.803833,1155.258423 
	C1437.249268,1156.926758 1438.643677,1158.639526 1440.729858,1161.128662 
	C1358.948120,1161.128662 1278.396851,1161.128662 1196.915771,1161.128662 
	C1199.906738,1164.683228 1202.564819,1167.404175 1204.694824,1170.489746 
	C1207.099365,1173.972656 1209.946655,1175.124756 1214.258545,1175.117188 
	C1298.256348,1174.968872 1382.254761,1175.007080 1466.252930,1175.007080 
	C1468.005249,1175.007080 1469.757690,1175.007080 1472.406982,1175.007080 
	C1470.858154,1173.124268 1469.961304,1171.995117 1469.024170,1170.900513 
	C1438.571289,1135.332153 1408.157837,1099.729736 1377.585693,1064.264038 
	C1374.794067,1061.025635 1374.098999,1058.351196 1375.266846,1054.114624 
	C1403.936401,950.113586 1432.494873,846.081726 1460.928711,742.015869 
	C1479.116577,675.449951 1498.500244,609.277466 1523.027466,544.702820 
	C1549.232788,475.709656 1584.028809,411.687103 1631.788818,355.081543 
	C1636.916870,349.003754 1642.156616,343.020233 1647.566772,336.734680 
	C1643.390869,333.670837 1639.562500,330.861969 1635.767456,328.077637 
	C1602.576782,365.726410 1564.773804,419.412994 1537.358887,475.775909 
M633.924622,594.340576 
	C632.647766,610.427185 630.287109,626.512085 630.260864,642.600708 
	C629.982178,813.221558 630.074707,983.843079 630.065002,1154.464355 
	C630.064880,1156.556885 630.065002,1158.649292 630.065002,1161.206299 
	C595.411926,1161.206299 561.407532,1161.206299 526.959900,1161.206299 
	C528.482849,1164.457031 530.004028,1167.058350 530.940125,1169.855713 
	C532.288696,1173.885742 534.568604,1175.162354 538.968506,1175.131592 
	C572.124695,1174.898804 605.283325,1175.004517 638.441162,1175.004517 
	C640.222656,1175.004517 642.004211,1175.004639 644.159668,1175.004639 
	C644.159668,1172.352905 644.159668,1170.223145 644.159668,1168.093262 
	C644.159668,993.472961 644.016357,818.852295 644.369690,644.232727 
	C644.407227,625.678223 646.507812,607.008057 649.154358,588.607727 
	C652.824463,563.090759 666.363831,544.239685 690.830139,534.327942 
	C696.668213,531.962830 702.779846,530.277222 708.742737,528.212952 
	C710.100708,527.742859 711.896240,527.349915 712.577759,526.318359 
	C715.531494,521.848206 718.147034,517.154541 721.339966,511.776703 
	C706.168762,514.419678 692.446045,518.159790 679.424072,524.287537 
	C660.610596,533.140503 646.892334,546.770996 640.593018,566.885681 
	C637.869690,575.581604 636.184021,584.602600 633.924622,594.340576 
z"/>
<path fill="#2FC5EF" opacity="1.000000" stroke="none" 
	d="
M326.975677,1117.061157 
	C310.761230,1112.083740 298.245972,1101.937378 288.110901,1088.717041 
	C274.092102,1070.430542 267.348572,1049.107422 263.113373,1026.838867 
	C257.186554,995.675781 258.234192,964.171082 258.377563,932.678711 
	C258.675781,867.182007 258.607361,801.683472 258.666779,736.185730 
	C258.695190,704.852844 258.737976,673.519531 258.569916,642.187561 
	C258.552917,639.021667 257.666931,635.591980 256.253387,632.747192 
	C249.073700,618.297546 241.590103,603.998779 234.202484,589.652588 
	C233.531723,588.350037 232.786667,587.085693 231.562820,584.877441 
	C231.326920,586.400757 231.168503,586.945312 231.168747,587.489746 
	C231.214523,691.320679 230.913406,795.153809 231.538895,898.981323 
	C231.735382,931.599121 233.958710,964.232971 236.141037,996.800049 
	C237.486481,1016.878296 240.742065,1036.805908 246.956100,1056.085571 
	C254.809525,1080.451538 271.372437,1097.572266 293.403564,1109.254761 
	C305.961639,1115.914062 319.607086,1120.519165 332.743286,1126.095581 
	C334.536926,1126.856812 336.614380,1127.509155 337.887909,1128.850464 
	C352.113922,1143.833374 366.207764,1158.941772 380.941620,1174.661255 
	C378.950806,1174.806396 377.610870,1174.989380 376.270935,1174.989624 
	C286.438843,1175.003052 196.606689,1174.978638 106.774727,1175.092041 
	C103.440941,1175.096313 101.610718,1174.083496 100.202049,1171.217285 
	C98.612633,1167.983154 96.647705,1164.933472 94.503754,1161.208862 
	C180.231049,1161.208862 265.274689,1161.208862 351.709045,1161.208862 
	C346.949158,1156.193604 343.067200,1152.044067 339.118896,1147.958496 
	C334.376953,1143.052002 330.378174,1136.331177 324.579681,1133.850586 
	C318.786957,1131.372437 311.168488,1133.092651 304.350342,1133.090942 
	C233.851288,1133.073608 163.352249,1133.080200 92.853203,1133.080200 
	C91.088142,1133.080200 89.323082,1133.080322 86.833115,1133.080322 
	C97.629105,1128.103760 107.976021,1124.038940 117.611328,1118.692017 
	C127.027855,1113.466309 136.129517,1107.463379 144.647598,1100.869263 
	C166.995880,1083.568726 176.895645,1059.221313 182.088928,1032.375732 
	C187.682571,1003.460571 189.222397,974.229553 189.222748,944.866577 
	C189.224426,808.535095 189.205185,672.203613 189.319824,535.872192 
	C189.322998,532.090637 188.047379,529.828125 185.255829,527.527344 
	C166.097382,511.737030 147.067078,495.791260 127.998833,479.891571 
	C125.987274,478.214264 123.997162,476.511261 121.382080,474.300171 
	C208.038193,474.300171 293.890717,474.300171 380.842285,474.300171 
	C356.292542,490.715881 332.486237,506.634460 308.331360,522.786133 
	C390.860291,683.710449 473.236969,844.337952 555.613647,1004.965454 
	C555.966309,1004.879333 556.319031,1004.793274 556.671692,1004.707214 
	C556.671692,994.643066 555.885010,984.503784 556.838440,974.530762 
	C558.716980,954.881470 552.964111,937.891357 543.937805,920.499756 
	C477.735809,792.943787 412.297180,664.991699 346.619446,537.163635 
	C345.638641,535.254700 344.677399,533.335632 343.430542,530.875916 
	C367.458954,514.582458 391.374115,498.365814 415.277374,482.157227 
	C418.547150,485.527008 421.640900,488.715424 425.051636,492.230530 
	C404.018250,506.479126 382.986877,520.726379 361.767303,535.101074 
	C426.424591,661.980347 490.925171,788.552063 555.425781,915.123840 
	C555.751892,915.034912 556.078003,914.945923 556.404114,914.856934 
	C556.493286,913.439636 556.660706,912.022278 556.660400,910.604980 
	C556.637756,820.773560 556.728699,730.941772 556.492981,641.110840 
	C556.416870,612.126038 554.961914,583.229919 549.406616,554.611755 
	C545.149231,532.679810 534.252197,515.154602 516.350281,502.370697 
	C502.061218,492.166687 486.869049,483.227295 473.028625,474.337341 
	C629.917114,474.337341 788.371521,474.337341 948.540771,474.337341 
	C946.264893,476.066467 944.907410,476.937927 943.735596,478.011993 
	C922.849915,497.154358 902.022949,516.361084 881.071716,535.431396 
	C878.567505,537.710815 877.803345,539.578125 878.777588,543.073059 
	C917.031311,680.302368 955.145935,817.570435 993.293884,954.829285 
	C993.714294,956.342102 994.332092,957.800049 995.294067,960.515076 
	C1000.424988,942.869080 1004.898071,926.428650 1010.061279,910.207825 
	C1012.377502,902.931091 1012.191895,896.331726 1010.119507,888.996521 
	C978.437866,776.859192 947.027649,664.645203 915.407593,552.490417 
	C914.116882,547.912354 914.623047,545.170715 918.425842,541.928223 
	C932.617310,529.827820 946.410339,517.260132 960.627136,504.624084 
	C964.530884,507.302673 968.324768,509.905884 972.653259,512.875916 
	C970.701782,514.687744 969.075439,516.251892 967.391968,517.751892 
	C955.945862,527.950134 944.523987,538.176208 933.000610,548.286560 
	C930.912170,550.118896 930.136353,551.721680 930.949219,554.631348 
	C960.334290,659.817871 989.620483,765.031982 1018.925354,870.240967 
	C1019.051453,870.693604 1019.250122,871.126038 1019.894714,872.855042 
	C1056.612305,739.284058 1093.024658,606.823608 1129.535767,474.004089 
	C1145.144531,474.004089 1160.616943,473.933380 1176.084717,474.163330 
	C1177.113647,474.178650 1178.646606,476.327148 1179.040527,477.736267 
	C1188.436890,511.356201 1197.714844,545.009277 1207.003418,578.659302 
	C1241.371582,703.165588 1275.735352,827.673096 1310.109497,952.177673 
	C1310.416626,953.290100 1310.841309,954.369995 1311.586182,956.576538 
	C1313.893799,948.632812 1315.954224,941.644531 1317.951904,934.638306 
	C1320.914551,924.248291 1323.957153,913.878052 1326.676758,903.424255 
	C1327.306763,901.002808 1327.350342,898.116638 1326.685303,895.715210 
	C1288.037476,756.180481 1249.286377,616.674377 1210.548828,477.164398 
	C1210.329956,476.376068 1210.160767,475.573914 1209.868774,474.366211 
	C1214.810547,474.366211 1219.481079,474.366211 1224.457153,474.366211 
	C1261.037720,606.826843 1297.622681,739.303406 1334.616211,873.259827 
	C1337.492920,862.961487 1340.020874,854.057251 1342.467285,845.130676 
	C1362.503662,772.024963 1383.211670,699.093323 1402.258423,625.730469 
	C1411.647095,589.567810 1418.372925,552.686340 1425.483154,515.971191 
	C1428.976074,497.934296 1429.630615,479.556519 1424.681152,461.450470 
	C1418.124390,437.465088 1403.276489,419.690674 1383.123535,405.879608 
	C1381.223511,404.577545 1379.307129,403.299347 1377.014160,401.750488 
	C1458.665161,373.385986 1537.198242,339.634918 1608.945679,290.906189 
	C1611.300781,292.958130 1613.901367,295.223938 1616.740356,297.697418 
	C1609.761108,305.761597 1603.015259,313.542969 1596.283447,321.336456 
	C1542.903076,383.134277 1504.869263,453.391937 1478.842285,530.681946 
	C1453.889282,604.782593 1432.641113,679.933838 1411.976196,755.284668 
	C1386.827515,846.984253 1361.595093,938.661011 1336.580078,1030.396973 
	C1335.553589,1034.161377 1335.653076,1038.581543 1336.471191,1042.432129 
	C1338.611450,1052.505249 1341.304443,1062.470215 1344.096313,1072.388550 
	C1344.767822,1074.774414 1346.256714,1077.277588 1348.086182,1078.936523 
	C1366.480347,1095.615601 1385.025879,1112.127930 1403.521729,1128.695068 
	C1404.826660,1129.863892 1406.075806,1131.095215 1407.908691,1132.823486 
	C1329.718872,1132.823486 1252.353394,1132.823486 1173.935547,1132.823486 
	C1177.308716,1129.952026 1180.009399,1127.628052 1182.736328,1125.335327 
	C1201.102173,1109.893677 1219.450317,1094.430908 1237.875000,1079.059692 
	C1239.973877,1077.308594 1240.961792,1075.914795 1240.118530,1072.871338 
	C1210.290771,965.221497 1180.584839,857.537781 1150.856567,749.860291 
	C1150.813721,749.705078 1150.693604,749.571106 1150.294678,748.887756 
	C1149.731445,750.366943 1149.208008,751.460266 1148.892212,752.610474 
	C1120.280884,856.806030 1091.698242,961.009277 1063.029419,1065.188843 
	C1062.174316,1068.295898 1062.877441,1070.327026 1064.891724,1072.725098 
	C1092.326904,1105.388062 1119.651733,1138.143677 1146.999390,1170.880005 
	C1147.918945,1171.980835 1148.793457,1173.119385 1150.297485,1175.001709 
	C1147.668335,1175.001709 1145.917236,1175.001709 1144.166138,1175.001709 
	C1060.667236,1175.001709 977.168335,1174.967529 893.669617,1175.097290 
	C889.252563,1175.104248 886.145264,1174.191406 883.907227,1170.187012 
	C882.241943,1167.207397 879.939880,1164.583618 877.495117,1161.213745 
	C958.995178,1161.213745 1039.723267,1161.213745 1121.714111,1161.213745 
	C1119.892212,1158.983398 1118.757324,1157.516479 1117.542725,1156.118652 
	C1094.481201,1129.576660 1071.450195,1103.007690 1048.284546,1076.556885 
	C1045.742432,1073.654297 1044.944092,1071.206299 1046.034424,1067.275635 
	C1077.625732,953.384705 1109.081177,839.456055 1140.419434,725.495300 
	C1141.240479,722.510010 1141.188232,718.919983 1140.395020,715.915100 
	C1135.686646,698.080078 1130.639160,680.334534 1125.257935,660.945557 
	C1124.244751,663.859497 1123.608765,665.392883 1123.174194,666.981384 
	C1089.089722,791.566345 1055.009888,916.152588 1021.032288,1040.766724 
	C1020.376953,1043.170044 1020.443237,1046.021118 1021.018127,1048.464478 
	C1023.187988,1057.686523 1023.967224,1067.848633 1028.584717,1075.709961 
	C1033.207520,1083.580322 1041.760254,1089.158936 1048.653442,1095.675537 
	C1060.521851,1106.895630 1072.438232,1118.065186 1084.337646,1129.252563 
	C1085.382812,1130.235107 1086.451294,1131.193115 1088.214233,1132.809082 
	C1009.577576,1132.809082 932.059021,1132.809082 853.347656,1132.809082 
	C876.957764,1113.690308 899.775696,1095.213135 922.984070,1076.419678 
	C919.590393,1064.096191 916.187561,1051.640015 912.729797,1039.199097 
	C866.792542,873.914307 820.860596,708.628052 774.795471,543.378967 
	C774.014526,540.577576 772.088806,537.654114 769.866821,535.763794 
	C747.657715,516.869507 725.227600,498.235077 702.996826,479.365967 
	C700.133179,476.935364 697.986389,476.508453 694.749146,478.535950 
	C682.626709,486.128235 670.269104,493.345734 658.162231,500.962036 
	C631.521484,517.721436 616.869568,542.536560 609.820190,572.656677 
	C603.932983,597.810974 602.041870,623.317627 602.032166,649.012634 
	C601.971863,808.177124 602.001831,967.341614 602.001831,1126.506104 
	C602.001831,1128.483398 602.001831,1130.460693 602.001831,1133.080322 
	C599.978149,1133.080322 598.218384,1133.080200 596.458557,1133.080200 
	C571.125549,1133.080200 545.791992,1132.991333 520.460266,1133.171997 
	C516.463623,1133.200439 514.388855,1132.050049 512.500183,1128.377441 
	C433.850403,975.436340 355.071777,822.561523 276.305878,669.680176 
	C275.488281,668.093323 274.626556,666.529236 273.148987,663.762939 
	C273.017731,666.697632 272.875092,668.401428 272.874878,670.105286 
	C272.864014,757.604126 273.384064,845.107483 272.606995,932.599426 
	C272.301147,967.035461 274.572815,1001.244995 278.495392,1035.266357 
	C282.086823,1066.416016 296.213715,1092.942505 322.068573,1112.156738 
	C323.909149,1113.524658 325.591797,1115.105103 327.142883,1116.860840 
	C326.937866,1117.135010 326.975677,1117.061157 326.975677,1117.061157 
z"/>
<path fill="#2EC3EC" opacity="1.000000" stroke="none" 
	d="
M1537.555176,475.457397 
	C1564.773804,419.412994 1602.576782,365.726410 1635.767456,328.077637 
	C1639.562500,330.861969 1643.390869,333.670837 1647.566772,336.734680 
	C1642.156616,343.020233 1636.916870,349.003754 1631.788818,355.081543 
	C1584.028809,411.687103 1549.232788,475.709656 1523.027466,544.702820 
	C1498.500244,609.277466 1479.116577,675.449951 1460.928711,742.015869 
	C1432.494873,846.081726 1403.936401,950.113586 1375.266846,1054.114624 
	C1374.098999,1058.351196 1374.794067,1061.025635 1377.585693,1064.264038 
	C1408.157837,1099.729736 1438.571289,1135.332153 1469.024170,1170.900513 
	C1469.961304,1171.995117 1470.858154,1173.124268 1472.406982,1175.007080 
	C1469.757690,1175.007080 1468.005249,1175.007080 1466.252930,1175.007080 
	C1382.254761,1175.007080 1298.256348,1174.968872 1214.258545,1175.117188 
	C1209.946655,1175.124756 1207.099365,1173.972656 1204.694824,1170.489746 
	C1202.564819,1167.404175 1199.906738,1164.683228 1196.915771,1161.128662 
	C1278.396851,1161.128662 1358.948120,1161.128662 1440.729858,1161.128662 
	C1438.643677,1158.639526 1437.249268,1156.926758 1435.803833,1155.258423 
	C1410.926147,1126.542236 1386.080078,1097.798584 1361.102051,1069.170044 
	C1358.554321,1066.249878 1357.825439,1063.771118 1358.904297,1059.870483 
	C1394.048096,932.824463 1428.710205,805.644104 1464.215820,678.699585 
	C1481.371704,617.361145 1501.293213,556.879150 1526.937500,498.445618 
	C1530.279297,490.831085 1533.878784,483.329712 1537.555176,475.457397 
z"/>
<path fill="#2EC4EE" opacity="1.000000" stroke="none" 
	d="
M633.975830,593.908203 
	C636.184021,584.602600 637.869690,575.581604 640.593018,566.885681 
	C646.892334,546.770996 660.610596,533.140503 679.424072,524.287537 
	C692.446045,518.159790 706.168762,514.419678 721.339966,511.776703 
	C718.147034,517.154541 715.531494,521.848206 712.577759,526.318359 
	C711.896240,527.349915 710.100708,527.742859 708.742737,528.212952 
	C702.779846,530.277222 696.668213,531.962830 690.830139,534.327942 
	C666.363831,544.239685 652.824463,563.090759 649.154358,588.607727 
	C646.507812,607.008057 644.407227,625.678223 644.369690,644.232727 
	C644.016357,818.852295 644.159668,993.472961 644.159668,1168.093262 
	C644.159668,1170.223145 644.159668,1172.352905 644.159668,1175.004639 
	C642.004211,1175.004639 640.222656,1175.004517 638.441162,1175.004517 
	C605.283325,1175.004517 572.124695,1174.898804 538.968506,1175.131592 
	C534.568604,1175.162354 532.288696,1173.885742 530.940125,1169.855713 
	C530.004028,1167.058350 528.482849,1164.457031 526.959900,1161.206299 
	C561.407532,1161.206299 595.411926,1161.206299 630.065002,1161.206299 
	C630.065002,1158.649292 630.064880,1156.556885 630.065002,1154.464355 
	C630.074707,983.843079 629.982178,813.221558 630.260864,642.600708 
	C630.287109,626.512085 632.647766,610.427185 633.975830,593.908203 
z"/>
<path fill="#2FC5EF" opacity="1.000000" stroke="none" 
	d="
M326.929260,1117.175537 
	C327.102234,1117.060791 327.283813,1116.905518 327.465393,1116.750122 
	C327.613647,1116.991089 327.761902,1117.231934 327.910217,1117.472900 
	C327.656525,1117.458374 327.402802,1117.443848 327.062378,1117.245239 
	C326.975677,1117.061157 326.937866,1117.135010 326.929260,1117.175537 
z"/>
</svg>